<?xml version="1.0" encoding="utf-8"?>
<!-- Generator: Adobe Illustrator 25.4.1, SVG Export Plug-In . SVG Version: 6.00 Build 0)  -->
<svg version="1.1" id="Capa_1" xmlns="http://www.w3.org/2000/svg" xmlns:xlink="http://www.w3.org/1999/xlink" x="0px" y="0px"
	 viewBox="0 0 1200 1200" style="enable-background:new 0 0 1200 1200;" xml:space="preserve">
<style type="text/css">
	.st0{fill:#FFFFFF;}
</style>
<g>
	<path class="st0" d="M634.87,340.58c2.06,3.4,4.78,6.56,6.07,10.23c23.55,67.28,38.07,136.2,37.37,207.84
		c-1.52,8.67-1.45,17.35-0.04,26.03c-0.48,58.16-9.35,115.21-22.52,171.71c-2.21,9.49-3.89,19.11-5.82,28.67
		c-2.42,4.58,1.63,6.87,3.54,9.93c-3.09,18.46-1.4,37.88-10.87,55.1c-23.15,7.69-28.53,4.59-30.33-19.02
		c-2.36-30.87-8.84-60.78-18.66-90.08c-1.87-5.58-5.44-11.32-1.92-17.62c4.93-14.79,6.11-30.37,8.99-45.58
		c5.57-29.49,8.95-59.32,12.42-89.1c0.78-2.8,1.21-5.66,1.14-8.64c4.35-25.03,4.44-50.4,6.5-75.58c1.94-23.66,2.45-47.46,2.46-71.28
		c0.01-26.59,2.14-53.18,2.62-79.79c0.09-4.98,2.97-9.4,6.89-12.81C633.42,340.58,634.14,340.58,634.87,340.58z"/>
	<path class="st0" d="M314.25,473.99c5.37,1.4,8.03,5.96,11.13,9.84c28.23,35.25,50.54,73.99,67.88,115.63
		c5.98,1.5,8.31,6.32,10.78,11.3c6.18,12.44,8.96,25.75,10.62,39.38c3.02,16.33,8.87,31.86,13.59,47.71
		c1.87,0.96,5.03,1.57,4.89,3.65c-0.72,10.87,6.77,19.28,8.37,29.38c3.03,26.65,4.19,53.34,0.69,80.04
		c-2.08,15.92-7.33,30.94-13.72,45.59c-8.88,4.71-11.26,15.95-20.44,20.36c-5.82,0-11.63,0-17.45,0c-5.35-3.71-7.18-8.91-7.8-15.3
		c-4.35-44.76-6.77-89.75-14.95-134.09c-1.38-7.51-2.84-15-4.73-22.37c-2.99-11.65-6.98-23.13-2.76-35.31
		c-13.16-56.28-28.11-112.07-44.7-167.44c-1.34-4.46-2.22-9.07-3.31-13.61C314.39,484,309.44,478.37,314.25,473.99z"/>
	<path class="st0" d="M229.21,876.86c-0.73,0-1.45,0-2.18,0c-0.89-0.9-1.72-1.85-2.46-2.86c-8.76-26.5-13.31-53.66-12.78-81.59
		c7.88-5.89,7.88-5.89,17.08,8.01c0.74,1.25-1.61,0.08-0.18-0.21c0.32-0.07,0.36-0.48-0.14-1.03c-4.85-5.41-8.38-11.76-9.42-18.78
		c-1.12-7.52-10.82-9.43-10.34-17.53c0.94-24.71,4.37-49.07,10.01-73.1c0.8-3.39,1.94-7.38,6.38-7.91c4.74-0.57,7.53,2.75,9.05,6.42
		c16,38.81,38.3,74.74,52.42,114.42c-6.72,13.06,1.06,24.74,3.84,36.77c1.78,7.7,6,14.71,8.72,22.17c1.55,4.25,3.99,8.92-1.04,12.8
		c-13.22,2.99-26.61,0.55-39.9,1.34C248.59,876.35,238.82,874.52,229.21,876.86z"/>
	<path class="st0" d="M360.37,669.78c15.65,55.73,22.12,112.86,26.06,170.39c0.84,12.27,2.76,24.46,4.18,36.69
		c-4.36,0-8.72,0-13.09,0c-5.8-3.61-9.3-8.67-11.57-15.24c-7.77-22.54-17.82-44.12-28.3-65.51c-2.04-4.17-6.14-9.02,0.52-13.11
		c0.33-7.6,0.03-15.29,1.1-22.79c6.71-46.63-12.21-83.27-44.34-114.82c-6.84-6.71-14.01-13.08-22.72-21.18
		c34.99,1.17,61.24,13.78,80.52,40.14C356.12,668.98,356.14,668.97,360.37,669.78z"/>
	<path class="st0" d="M639.15,846.34c7.05-16.85,5.36-35.09,8.32-52.59c2.41-0.54,2.36-3.73,4.69-4.36
		c13.86-31.42,26.44-63.31,36.41-96.5c4.73,28.71,3.24,57.24,0.35,85.77c-1.02,4.51,4.37,5.92,4.73,9.77
		c-9.23,27.31-23.32,52.27-37.54,77.15c-2.04,3.57-5.58,5.93-8.41,8.88c-1.27,0.97-2.87,1.37-4.1,2.39c-1.45,0-2.91,0-4.36,0
		c-3.79-3.65-7.8-7.17-7.36-13.18C630.69,856.38,634.17,851.05,639.15,846.34z"/>
	<path class="st0" d="M765.42,693.68c5.45-0.94,3.96-5.75,4.77-9.02c3.01-12.15,4.6-24.68,10.78-36.31
		c6.81,24.77,5.74,50.17,6.29,75.43c-0.9,6.92,2.59,12.91,4.16,19.29c0.35,1.04,0.6,2.11,0.8,3.2c0.69,4.48-0.89,8.61-2,12.82
		c-6.02,27.83-10.58,55.99-19.25,83.19c-3.52,11.05-5.5,22.85-14.03,31.73c-1.24,1.23-2.89,1.85-4.3,2.84c-1.45,0-2.91,0-4.36,0
		c-1.53-1-3.31-1.67-4.29-3.37c-2.68-9.03-0.09-17.86,1.31-26.66c1.42-8.91,2.27-17.81,2.12-26.83c0.11-6.18,0.35-12.25,5.28-16.99
		c1.24-1.2,2.27-3.38,1.98-4.92c-2.98-15.73,4.77-30.61,3.43-46.16c2.61-6.86-3.43-12.6-2.57-19.24c0.49-8.18,2.28-16.31,0.99-24.58
		c0.23-5.42-1.63-11.51,4.76-14.99C762.74,692.66,764.13,692.86,765.42,693.68z"/>
	<path class="st0" d="M990.37,876.86c-0.73,0-1.45,0-2.18,0c-8.58-2.48-17.36-0.4-26.01-1.1c-1.17,0.05-2.25-0.23-3.23-0.86
		c-4.37-5.72,0.09-10.1,2.41-14.65c8.92-17.53,19.65-34.21,24.97-53.45c8.79-7.02,13.89-16.31,17.57-26.8
		c2.75-7.84,7.64-14.69,12.51-21.42c2.22-3.06,4.83-5.56,9.05-4.19c4.31,1.4,4.85,5.25,4.74,8.84c-0.36,11.59-4.88,22.05-9.59,32.41
		c-2.43,5.35-5.92,10.43-3.79,16.8c-9.06,18.04-13.66,37.65-19.7,56.76C995.56,872.36,992.62,874.3,990.37,876.86z"/>
	<path class="st0" d="M338.18,782.99c12.21,28.54,26.98,55.99,36.52,85.67c0.88,2.75,1.88,5.46,2.82,8.19c-6.54,0-13.09,0-19.63,0
		c-1.51-1.67-3.84-2.35-5.12-4.29c-7.35-11.1-9.51-24.22-14.14-36.38c-10.71-28.14-21.88-56.06-35.45-83
		c-2.03-4.03-7.82-9.31,0.1-13.77c11.16,9.9,18.49,22.85,27.46,34.48C333.13,777,334.48,780.96,338.18,782.99z"/>
	<path class="st0" d="M549.81,876.86c-5.09,0-10.18,0-15.27,0c-0.81-0.93-1.46-1.97-1.94-3.1c-0.21-13.93,4.53-27.03,8.71-39.79
		c3.99-12.17,5.39-24.45,7.6-36.78c1.59-8.87,0.4-18.9,8.77-25.52c6.37-1.3,10.76,0.93,12.21,7.41c6.99,31.3,0.23,60.98-11.04,90.04
		c-0.64,1.65-2.58,3.23-4.16,4.61C553.24,875.01,551.47,875.84,549.81,876.86z"/>
	<path class="st0" d="M761.58,750.4c0.71,24.17-3.48,47.87-6.9,71.65c-5.72,3.86-5.89-3.09-9.49-4.98
		c-10.71,18.23-13.61,40.55-29.25,56.04c-1.39,1.48-3.41,2.16-4.73,3.74c-2.18,0-4.36,0-6.54,0c-1.38-0.98-3.05-1.56-4.13-2.96
		c-1.78-6.1,2.34-10.43,5.07-14.81c20.03-32.16,34.45-66.64,44.38-103.17c1.58-5.83,0.77-14.43,10.27-15.54
		C763.64,743.33,762.72,746.85,761.58,750.4z"/>
	<path class="st0" d="M297.05,872.38c-5.7-17.88-16.13-34.24-16.91-53.71c-0.22-5.44-1.32-10.85,1.45-15.97
		c3.86-1.18,6.1,0.78,7.83,3.92c10.95,19.88,20.23,40.56,29.27,61.35c0.91,2.08,0.84,4.2-0.09,6.28c-0.63,0.93-1.34,1.8-2.14,2.6
		c-5.82,0-11.63,0-17.45,0C297.29,875.82,297.96,873.76,297.05,872.38z"/>
	<path class="st0" d="M74.36,876.86c0.2-0.78,0.41-1.55,0.61-2.33c1.04-2.11,2.78-3.03,5.07-3.05c31.34-3.8,62.82-1.76,94.24-2.23
		c6.15-0.09,12.24,0.27,18.13,2.26c1.39,0.23,2.66,0.76,3.79,1.6c1.02,1.17,1.12,2.42,0.3,3.74
		C155.79,876.86,115.07,876.86,74.36,876.86z"/>
	<path class="st0" d="M549.81,876.86c0.65-0.75,1.29-1.49,1.94-2.24c4.67-4.05,10.17-5.35,16.26-5.35c10.79,0,21.61-0.37,32.38,0.06
		c12.73,0.5,25.02-0.86,36.82-5.81c1.99,4.25,1.96,8.8,2.02,13.34C609.43,876.86,579.62,876.86,549.81,876.86z"/>
	<path class="st0" d="M408.05,876.86c4.13-7.96,7.12-16.7,15.19-21.92c7.25,6.84,7.01,10.48-1.25,19.37
		c-1.05,0.79-2.07,1.64-3.04,2.55C415.32,876.86,411.69,876.86,408.05,876.86z"/>
	<path class="st0" d="M1145.22,876.86c-26.17,0-52.34,0-78.51,0c-0.84-1.29-0.78-2.53,0.19-3.73c1.11-0.87,2.34-1.46,3.72-1.77
		c19.35-4.47,38.96-1.27,58.44-1.99c5.58-0.21,11.72-1.28,16.4,3.5C1146.19,874.25,1146.11,875.57,1145.22,876.86z"/>
	<path class="st0" d="M297.05,872.38c0.65,1.49,1.3,2.99,1.96,4.48c-23.26,0-46.53,0-69.79,0c15.3-4.44,30.97-1.2,46.43-2.15
		C282.82,874.26,290.19,875.76,297.05,872.38z"/>
	<path class="st0" d="M535.25,874.89c-0.11,0.7-0.34,1.36-0.71,1.96c-22.54,0-45.07,0-67.61,0c-0.98-1.01-1.65-2.18-2.04-3.53
		c0-3.28,1.6-5.16,4.87-5.58c17.15,2.38,34.41,1.06,51.61,1.62C526.56,869.53,532.45,868.51,535.25,874.89z"/>
	<path class="st0" d="M702.45,874.68c0.74,0.72,1.47,1.45,2.21,2.17c-20.36,0-40.71,0-61.07,0c0.58-0.77,1.16-1.54,1.74-2.3
		c4.17-3.08,8.66-4.94,14.03-5.1c10.36-0.31,20.72-0.29,31.07-0.03C695.04,869.54,699.88,869.68,702.45,874.68z"/>
	<path class="st0" d="M879.14,876.86c-17.45,0-34.9,0-52.34,0c-0.88-0.96-1.33-2.09-1.38-3.39c0.49-2.02,1.74-3.26,3.78-3.69
		c16.81-0.56,33.64-0.82,50.46-1.43c1.65,1.41,2.17,3.19,1.74,5.29C880.83,874.84,880.07,875.91,879.14,876.86z"/>
	<path class="st0" d="M879.14,876.86c-0.09-0.73-0.05-1.45,0.11-2.17c2.04-2.59,4.5-4.69,7.9-4.81c13.51-0.48,27.08-2.33,40.43,1.48
		c1.37,0.3,2.6,0.89,3.69,1.76c0.97,1.19,1.04,2.44,0.21,3.74C914.04,876.86,896.59,876.86,879.14,876.86z"/>
	<path class="st0" d="M1066.74,874.7c-0.01,0.72-0.03,1.44-0.04,2.16c-15.99,0-31.99,0-47.98,0c-0.84-1.29-0.77-2.53,0.19-3.73
		c1.1-0.88,2.34-1.46,3.72-1.77c12.03-3.69,24.28-1.99,36.47-1.49C1062.44,870.01,1065.17,871.55,1066.74,874.7z"/>
	<path class="st0" d="M466.9,874.68c0.06,0.72,0.07,1.45,0.04,2.17c-15.99,0-31.99,0-47.98,0c0-0.72,0.03-1.43,0.08-2.15
		C432.62,866.93,457.09,866.91,466.9,874.68z"/>
	<path class="st0" d="M752.64,876.86c0.66-0.74,1.32-1.49,1.97-2.23c14.1-8.68,28.65-6.9,43.34-1.9c0.84,1.29,1,2.67,0.48,4.13
		C783.18,876.86,767.91,876.86,752.64,876.86z"/>
	<path class="st0" d="M316.45,876.86c0.07-0.74,0.14-1.48,0.22-2.21c10.35-10.05,22.67-4.28,34.26-4.18
		c1.72,0.02,3.22,1.48,5.01,1.77c0.65,1.54,1.3,3.08,1.96,4.62C344.08,876.86,330.26,876.86,316.45,876.86z"/>
	<path class="st0" d="M711.21,876.86c0.71-1.46,1.42-2.92,2.13-4.38c11.22-3.12,22.51-7.4,32.91,2.14c0.68,0.75,1.36,1.49,2.04,2.24
		C735.92,876.86,723.56,876.86,711.21,876.86z"/>
	<path class="st0" d="M1019.05,874.85c-0.08,0.68-0.19,1.35-0.33,2.01c-9.45,0-18.9,0-28.35,0c0.69-2.99,1.37-5.97,2.06-8.96
		c6.16,0.15,12.23,1.27,18.37,1.6C1014.41,869.69,1018.22,870.12,1019.05,874.85z"/>
	<path class="st0" d="M196.5,876.86c-0.25-0.61-0.45-1.23-0.59-1.88c7.58-7.72,21.36-7.84,31.24-0.27
		c-0.01,0.72-0.05,1.43-0.11,2.14C216.85,876.86,206.68,876.86,196.5,876.86z"/>
	<path class="st0" d="M798.44,876.86c-0.05-0.75-0.1-1.5-0.15-2.26c0.4-0.58,0.8-1.16,1.18-1.76c9.29-2.84,18.72-7.42,27.21,1.85
		c0.07,0.72,0.11,1.44,0.11,2.17C817.35,876.86,807.9,876.86,798.44,876.86z"/>
	<path class="st0" d="M931.48,876.86c-0.06-0.69-0.11-1.38-0.16-2.07c7.72-7.45,19.78-7.48,28.18-0.08l0.63-0.09
		c1.33,0.93,1.23,1.68-0.3,2.23C950.38,876.86,940.93,876.86,931.48,876.86z"/>
	<path class="st0" d="M959.84,876.86c0.1-0.74,0.19-1.48,0.29-2.23c9.35,0.74,18.95-1.64,28.06,2.23
		C978.74,876.86,969.29,876.86,959.84,876.86z"/>
	<path class="st0" d="M1145.22,876.86c0.06-0.67,0.13-1.35,0.19-2.02c4.3-5.46,8.73-1.79,13.13-0.19c0.65,0.74,1.3,1.48,1.94,2.22
		C1155.4,876.86,1150.31,876.86,1145.22,876.86z"/>
	<path class="st0" d="M535.25,874.89c-17.56-0.07-35.13-0.13-52.69-0.24c-5-0.03-10.21,0.4-13.58-4.56c-4.69-2.3-5.44-6.69-4.87-11
		c2.78-20.73,0.77-41.63,2.49-62.37c19.04-31.22,25.55-65.81,27.65-101.69c1.68-28.65-5.1-56.44-8.04-84.61
		c-0.75-7.17,0.7-14.46-1.6-21.47c-8.8-35.68-22.95-69.5-36.25-103.61c-4.22-10.81-8.69-21.53-12.9-32.34
		c-1.42-3.64-3.81-8.16-0.19-11.1c3.7-3,8.81-1.31,12.16,1.33c9.07,7.17,17.63,14.97,26.4,22.51c1.36,1.17,2.77,2.28,4.16,3.42
		c16.69,19.04,32.94,38.39,46.27,60.05c10.88,17.69,18.01,37,25.31,56.27c4.51,2.65,6.57,6.79,8.08,11.68
		c4.94,15.99,6.07,32.43,6.63,48.98c0.21,6.11,0.9,12.19,1.82,18.25c-2.3,16.12,5.89,31.18,4.6,47.33
		c-0.57,7.17-0.79,14.15-3.8,20.74c-1.08,10.6,2.11,21.39-1.26,31.91c-0.61,4.47-4.41,6.93-6.63,10.39
		c-1.79,9.91-4.31,19.76-5.21,29.75C551.61,829.09,541.59,851.48,535.25,874.89z"/>
	<path class="st0" d="M227.15,874.71c-10.41,0.09-20.82,0.18-31.24,0.27c-0.51-0.09-1.01-0.21-1.51-0.34
		c-4.24-2.76-6.76-6.47-9.05-11.21c-7-14.51-13.93-29.01-19.3-44.21c-1.14-2.27-2.24-4.57-2.88-7.05c-0.78-3.02-2.27-5.71-3.88-8.36
		c-2.49-6.17-0.67-12.36-0.03-18.54c-15.31-36.7-39.18-67.65-65.39-96.98C78.6,671.2,62.03,655.4,44.68,640.44
		c-2.47-2.13-5.02-4.23-7.23-6.61c-1.89-2.04-5.2-4.15-4.03-7.1c1.36-3.42,5.13-1.73,7.77-1.32c4.64,0.72,9.31,1.68,13.78,3.11
		c57.29,18.3,104.91,50.64,142.3,97.91c2.68,3.39,3.95,9.09,10.16,8.51c1.74-1.31,0.95-2.81,0.33-4.31c-0.1-2.86-0.2-5.72-0.29-8.58
		c-0.01-18.16-0.08-36.31,0.04-54.47c3.2-42.49,17.13-81.75,36.31-119.36c5.34-10.47,10.4-21.18,18.76-31.73
		c3.29,10.83-0.57,19.94,0.14,29c-2.52,22.53-5.04,45.07-7.55,67.6c-5.16,17.19-7.8,35.08-15.63,51.55
		c-4.18,8.8-1.84,12.73,7.76,18.01c9.24,3.77,13.66,12.21,19.13,19.63c14.04,10.64,22.81,26.51,36.87,37.13
		c14.04,30.91,29.06,61.41,40,93.65c4.41,12.99,9.97,25.62,12.64,39.17c-12.84,4.77-26.18,1.47-39.26,2.4
		c-11.7-23.98-23.39-47.96-35.09-71.94c-16.23-39.12-37.52-75.84-55.07-115.07c-7.93,24.95-14.02,49.89-12.28,76.16
		c2.92,5.75,2.49,12.43,5.22,18.3c1.81,3.89,0.66,7.43-3.23,9.74c0.56,21.11,4.81,41.72,8.3,62.45
		C225.65,861.04,226.28,867.89,227.15,874.71z"/>
	<path class="st0" d="M484.61,588.95c16.12,54.72,21.73,109.88,6.23,165.73c-4.16,14.97-9.35,29.66-19.48,41.96
		c-8.11-4.45-10.49-12.55-7.59-25.83c5.66-5.23,3.19-12.65,5.05-18.92c8.44-28.51,10.04-57.33,3.94-86.55
		c-0.79-3.81-3.05-8.81,3.2-10.9c5.6-0.75,3.86-5.49,4.14-8.53C481.81,626.95,483.15,607.95,484.61,588.95z"/>
	<path class="st0" d="M475.96,654.45c11.22,39.92,6.06,78.86-7.07,117.31c-5.49,2.71-8.08-0.11-9.37-5.04
		c-3.46-13.26-8.34-26.02-13.39-38.73c-2.78-6.99-0.98-13.83,0.88-20.64c0.7-0.99,1.54-1.77,2.59-2.35
		c5.93-4.2,5.93-11.27,7.95-17.2c4.74-13.9,8.78-28.04,13.43-43.13C475.12,647.69,475.28,651.2,475.96,654.45z"/>
	<path class="st0" d="M414.66,650.13c-8.98-16.11-13.62-34.06-21.4-50.68c8.48-6.03,12.36-15.84,19.11-23.32
		c8.44-9.34,16.12-19.4,26.82-27.78c3.13,5.75,0.67,10.37-0.78,14.87C429.16,591.83,419.76,620.39,414.66,650.13z"/>
	<path class="st0" d="M244.74,686.87c-17.28-7.63-17.97-8.67-10.24-25.31c7.41-15.94,11.43-33.31,20.65-48.46
		c-0.76,14.53-1.52,29.06-2.28,43.59c-1.7,5.71-0.64,11.61-0.98,17.4C251.55,679.75,250.25,684.35,244.74,686.87z"/>
	<path class="st0" d="M244.74,686.87c1.44-10.4,3.63-20.6,8.13-30.17c2.23,15.88,10.3,30.02,13.54,45.59
		C259.19,697.15,251.96,692.01,244.74,686.87z"/>
	<path class="st0" d="M434.63,732.3c-2.12-11.49-4.25-22.97-6.37-34.46c6.63-9.21,5.22-21.64,12.25-30.7
		c4.93,3.36,3.23,8.07,2.57,12.58c-1.67,11.56-2.58,23.09,1.91,34.3c-0.61,4.64-2.35,8.99-3.68,13.45
		C440.35,730.66,439.09,733.78,434.63,732.3z"/>
	<path class="st0" d="M438.73,715.6c-0.9-16.21,0.18-32.34,1.77-48.46c0.68-1.51,1.35-3.02,2.03-4.53
		c6.89,1.72,4.81,7.24,4.38,11.47c-1.05,10.42-0.96,20.8-0.11,31.18C446.28,710.4,447.2,716.65,438.73,715.6z"/>
	<path class="st0" d="M445.17,706.93c-1.09-14.76,2.36-29.79-2.64-44.32c0.22-1.21,0.45-2.42,0.67-3.63
		c9.34,4.25,4.23,11.89,4.29,18.31c1.67,9.16-1.33,18.67,2.1,27.69c-0.12,0.56-0.29,1.09-0.53,1.61
		C447.89,708.15,446.6,708.37,445.17,706.93z"/>
	<path class="st0" d="M447.49,677.3c-0.3-6.37,0.13-12.91-4.29-18.31c0.48-3.5,1.05-6.95,5.73-8.9
		C450.8,659.56,449.56,668.44,447.49,677.3z"/>
	<path class="st0" d="M314.25,473.99c-0.06,4.99,0.36,10.04-1.89,14.75C311.68,483.65,306.65,478.01,314.25,473.99z"/>
	<path class="st0" d="M878.98,870.29c-16.44,7.94-33.3,4.89-50.17,1.94c-6.13-3.07-3.82-7.71-2.13-12.1
		c10.27-26.7,19.35-53.75,26.74-81.44c12.39-46.4,19.34-93.49,20.19-141.46c0.21-11.91,3.61-23.48,3.04-35.41
		c1.64-17.01,5.4-33.64,8.76-50.35c2.42-1,1.14-2.41,0.43-3.76c3.9-41.2,7.88-82.39,11.67-123.6c1.36-14.83,2.3-29.69,3.4-44.54
		c0.59-7.96,1.16-15.91,6.17-25.78c13.23,29.78,18.01,59.44,22.1,89.3c-0.69,1.32-2.13,2.74,0.44,3.67
		c4.7,24.28,6.85,48.79,6.34,73.52c1.61,21.9,1.61,43.81,0,65.71c0.47,33.49-2.96,66.63-8.57,99.6c-2.42,1-1.13,2.42-0.42,3.77
		c0.24,3.95,0.13,7.85-1.77,11.47c-2.37,1.02-1.14,2.44-0.41,3.79c-0.76,5.84-1.51,11.68-2.27,17.52c3.77,7.45,1.52,14.07-1.82,21.2
		c-17.12,36.61-27.71,75.2-33.8,115.08C886.13,863.49,887,869.92,878.98,870.29z"/>
	<path class="st0" d="M798.3,874.6c-14.56,0.01-29.12,0.02-43.67,0.02c13.85-38.27,22.08-78,30.71-117.64
		c-2.01-4.05,0.06-7.36,1.94-10.7c0.06-0.83,0.13-1.67,0.19-2.5c-1.12-1.07-1-2.44-0.9-3.8c1.79-2.84,2.29-5.89,1.42-9.15
		c0.26-0.89,0.71-1.67,1.38-2.31c6.9-49.39,6.87-98.81,0.82-148.27c-0.26-2.14-0.16-4.32-0.22-6.49c0.69-1.37,1.8-2.8-0.45-3.82
		c-6.83-35.65-16.29-70.56-29.27-104.5c-1-2.61-2.6-6.19-0.29-8.21c2.9-2.54,6.29,0.21,8.79,1.85
		c19.56,12.81,33.95,30.34,45.45,50.45c19.02,33.27,28.53,69.59,34.44,107.07c0.85,5.37,1.67,10.75,2.51,16.12
		c1.12,2.2,0.78,4.5,0.45,6.8c-1.22,9.23-1.28,18.46,0.04,27.69c0.33,2.34,1.8,4.29,2.37,6.54c1.67,3.3,2.78,6.69,1.58,10.42
		c-3.72,8.08-3.94,16.91-5.2,25.47c-7.38,50.43-20.39,99.38-38.23,147.09c-2.74,7.33-5.62,14.46-13.3,18.12L798.3,874.6z"/>
	<path class="st0" d="M702.45,874.68c-19.04-0.04-38.08-0.09-57.12-0.13c10.51-19.82,21.22-39.53,31.44-59.5
		c4.6-8.99,8.22-18.48,12.28-27.74c-0.54-2.62,0.5-4.69,2.3-6.48c11.5-26,17.51-53.62,23.95-81.11c2.42-0.98,1.13-2.41,0.45-3.76
		c3.88-35.63,3.28-71.27-0.06-106.9c0.73-1.34,2.08-2.74-0.41-3.72c-1.27-5.62-2.69-11.21-3.74-16.86
		c-0.44-2.35-1.65-5.55,0.82-7.03c3.03-1.82,5.69,0.87,7.49,2.87c5.79,6.44,12.15,12.64,16.62,19.95
		c20.52,33.51,31.66,69.68,28.95,109.41c0,0-0.79,0.03-0.79,0.03l-0.79,0c-2.38,5.05-1.84,10.16-0.29,15.28
		c-0.71,8.01-1.42,16.02-2.13,24.04c0.62,3.26,0.26,6.3-1.97,8.93C748.35,789.59,729.64,833.95,702.45,874.68z"/>
	<path class="st0" d="M1064.78,523.7c-6.08,62.08-24.48,121.07-45.17,179.48c-1.41,3.98-2.12,8.21-3.15,12.33
		c-3.64,1.79-5.74-0.66-7.94-2.84c-1.33-8.44,1.83-16.26,3.08-22.47c-25.19,42.82-48.86,88.52-72.01,134.49
		c-3,5.96-6.84,10.86-14.13,4.65c-3.12-11.02,2.06-21.47,2.1-32.27c7.88-9.98,9.41-21.88,11.07-34.01
		c2.98-21.78,8.02-43.27,9.68-65.27c0.4-5.33,3.56-9.99,4.83-15.16c0.28-5.57,4.77-8.76,7.54-12.82
		c37.26-54.67,62.58-115.12,86.17-176.46c4.03-10.47,8.88-20.62,13.48-30.87c0.68-1.52,2.06-2.73,4.63-6.02
		C1069,480.39,1065.25,502.07,1064.78,523.7z"/>
	<path class="st0" d="M798.84,874.86c22.53-54.61,38.02-111.15,46.4-169.62c1.08-7.51,1.85-15.05,2.77-22.58
		c3.47-1.27,2.12-4.71,3.19-7.06c0.76-2.25,1.15-4.71,3.48-6.06c7.32-22.57,14.65-45.14,21.97-67.71
		c5.2,21.15,2.96,42.58,1.53,63.81c-4.6,68.27-21.07,133.84-46.62,197.22c-1.21,3.01-1.85,6.24-2.75,9.37
		c-0.71,0.82-1.42,1.64-2.13,2.46C817.4,874.74,808.12,874.8,798.84,874.86z"/>
	<path class="st0" d="M933.68,798.39c-1.35,9.94-4.3,19.67-4.01,29.84c1.91,1.66,4.07,3.35,4.07,6.08
		c0.02,13.59,5.3,27.76-4.32,40.31c-16.72,0.03-33.44,0.05-50.17,0.08c-0.09-1.47-0.18-2.93-0.27-4.4
		c5.89-35.71,12.75-71.19,26.14-105.03c5.7-14.42,11.6-28.76,17.4-43.13c8.44-4.55,8.9-15.82,17.23-20.47
		c9.21,5.15,5.84,13.87,5.12,21.07c-1.38,13.87-4.7,27.52-6.23,41.4C937.39,775.62,933.31,786.68,933.68,798.39z"/>
	<path class="st0" d="M933.68,798.39c-4.9-14.43,0.42-28.63,1.08-42.92c0.83-17.99,7.09-35.51,5-53.81
		c3.75-6.85,7.15-13.94,13.41-19.02c1.95,13.41,0.23,26.69-2.06,39.82C946.65,748.06,943.26,773.95,933.68,798.39z"/>
	<path class="st0" d="M935.96,585.98c0-21.9,0-43.8,0-65.71C938.59,542.18,938.47,564.08,935.96,585.98z"/>
	<path class="st0" d="M678.27,584.68c-2.84-8.68-2.88-17.36,0.04-26.03C679.47,567.33,679.26,576,678.27,584.68z"/>
	<path class="st0" d="M926.97,689.34c-0.49-1.26-1.25-2.5-1.39-3.8c-0.14-1.28-1.66-3.13,0.89-3.87c0.31,1.3,0.62,2.6,0.93,3.91
		C927.25,686.83,927.11,688.09,926.97,689.34z"/>
	<path class="st0" d="M924.79,704.6c-0.79-1.92-2.26-3.71-1.19-6c0.53,0.73,1.06,1.47,1.59,2.2
		C925.06,702.08,924.93,703.34,924.79,704.6z"/>
	<path class="st0" d="M789.5,569.94c0.52-0.72,1.05-1.44,1.57-2.16c1.05,2.26-0.36,4.06-1.12,5.98
		C789.8,572.49,789.65,571.22,789.5,569.94z"/>
	<path class="st0" d="M929.62,446.75c-0.53,0.78-1.05,1.56-1.58,2.33c-1.23-2.3,0.35-4.08,1.13-6
		C929.33,444.3,929.48,445.53,929.62,446.75z"/>
	<path class="st0" d="M715.27,585.34c0.53-0.76,1.05-1.52,1.58-2.28c1.17,2.3-0.37,4.08-1.17,6
		C715.55,587.82,715.41,586.58,715.27,585.34z"/>
	<path class="st0" d="M715.75,695.96c0.78,1.93,2.26,3.72,1.13,6.01c-0.53-0.75-1.05-1.5-1.58-2.25
		C715.45,698.46,715.6,697.21,715.75,695.96z"/>
	<path class="st0" d="M885.84,547.71c0.78,1.93,2.28,3.72,1.16,6.01c-0.53-0.75-1.06-1.5-1.59-2.25
		C885.55,550.22,885.69,548.96,885.84,547.71z"/>
	<path class="st0" d="M1010.44,811.66c3.73-17.13,13.47-32.66,13.26-51.15c-13.02,15.47-21.6,33.52-31.15,50.97
		c-5.66,1.25-7.15-1.95-6.3-6.54c3.25-17.63,8.98-34.57,14.81-51.47c1.08-3.14,4.25-3.56,6.79-4.75
		c10.41-9.33,16.19-22.03,24.01-33.23c28.01-40.13,62.82-70.19,113.25-77.29c16.89-2.38,33.55-1.48,51.81,6.19
		c-12.09,2.11-21.69,3.28-31.04,5.54c-13.21,3.2-24.79,9.89-35.36,18.43c-32.98,26.65-57.75,59.77-76.92,97.32
		c4.1,3.52,2.66,6.64-0.32,10.12c-10.33,12.06-21.88,22.99-32.31,34.97C1018.27,813.9,1014.45,817.47,1010.44,811.66z"/>
	<path class="st0" d="M1007.86,748.72c-4.75,15.98-9.58,31.94-14.2,47.96c-1.38,4.79-3.56,9.66-1.1,14.8
		c-10.44,21.38-20.88,42.75-33.05,63.23c-9.39,0.02-18.79,0.05-28.18,0.07c-0.64-0.05-1.28-0.11-1.91-0.17
		c0.08-15.46,0.17-30.92,0.25-46.39c4.8-3.26,6.4-8.64,8.8-13.44c22.18-44.3,44.81-88.35,70.66-130.66
		c1.98-3.25,2.98-7.47,8.19-9.14c3.34,11.86-3.87,22.56-3.06,33.81c-0.63,6.58-1.65,13.1-2.37,19.67
		C1011.44,735.4,1006.91,741.51,1007.86,748.72z"/>
	<path class="st0" d="M1066.74,874.7c-15.37-0.05-30.75-0.1-46.12-0.16c-5.42-3.94-4.12-8.92-2.69-14.34
		c5.45-20.68,18.58-37.25,29.2-55.15c1.47-2.47,3.09-4.86,4.6-7.33c3.46-4.35,8.89-1.48,12.98-3.56
		c20.81-18.5,43.3-33.7,72.99-37.74c-1.61,8.28-7.21,12-11.65,16.29c-14.11,13.63-27.69,27.7-39.83,43.13
		c-6.09,7.74-10.78,16.32-14.75,25.31c4.87,11.61,5.27,22.85-2.69,33.43C1068.09,874.62,1067.41,874.65,1066.74,874.7z"/>
	<path class="st0" d="M1055.99,800.34c-5.49,9.25-10.37,18.94-16.61,27.65c-10.09,14.1-15.59,29.79-18.76,46.55
		c-0.52,0.1-1.05,0.2-1.57,0.3c-5.68-0.09-11.36-0.19-17.04-0.27c-4.72-0.06-8.31-1.69-9.58-6.68c3.93-19.41,10.6-37.95,18.01-56.24
		c16.33-13.51,30.26-29.27,43.18-45.98c8.71-1.93,14.15-9.43,21.96-12.87c3.56-1.57,7.17-3.02,10.76-4.53
		c2.16,0.83,4.68,1.28,4.63,4.43c-9.75,12.84-20.57,24.89-28.82,38.84C1061.08,795.17,1059.65,798.54,1055.99,800.34z"/>
	<path class="st0" d="M1068.77,874.59c-0.27-11.24-0.61-22.48,2.69-33.43c26.95,4.61,53.04,11.88,77.01,25.45
		c3.73,2.11,7.72,4.1,10.08,8.02c-4.38,0.06-8.76,0.13-13.13,0.19C1119.86,874.75,1094.31,874.67,1068.77,874.59z"/>
	<path class="st0" d="M1011.87,728.47c-1.93-6.88,0.19-13.28,2.37-19.67c0.74,2.24,1.48,4.47,2.22,6.71
		C1016.73,720.47,1013.41,724.15,1011.87,728.47z"/>
	<path class="st0" d="M1090.97,752.71c-1.54-1.48-3.09-2.95-4.63-4.43c2.42-1.57,5.67-3.5,7.65-1.28
		C1095.72,748.92,1092.91,751.2,1090.97,752.71z"/>
	<path class="st0" d="M559.03,774.77c0.45-3.06,0.9-6.11,1.34-9.17c1.76-0.07,3.59,0.19,4.8-1.6c4.2-6.23,3.17-23.51-1.86-30.63
		c2.52-23.44-0.17-46.86-0.27-70.29c2.47-7.03-1.44-14.03-0.07-21.07c0.39-2.04,0.24-4.76,2.92-4.8c3.11-0.05,2.45,2.89,2.39,4.78
		c-0.13,4.58,0.85,9.26-0.94,13.73c0.15,0.44,0.36,0.88,0.43,1.33c0.03,0.17-0.28,0.39-0.43,0.58c2.49,6.75-0.43,13.98,1.82,20.75
		c8.06,15.06,16.12,30.12,24.18,45.18c1.18,2.21,2.74,1.66,4.36,0.56c-1.25,5.46-0.53,10.69,1.35,15.96
		c10.4,29.14,16.57,59.13,18.8,90.03c1.34,18.52,4.76,20.72,21.3,16.22c-0.65,5.73-1.3,11.45-1.94,17.18
		c0.19,8.34-4.23,11.26-12.16,11.19c-24.43-0.21-48.86-0.09-73.3-0.09c6.83-17.61,11.21-35.87,14.4-54.45
		c2.24-13.05,0.98-25.95-1.22-38.84C564.35,777.86,563.13,775.04,559.03,774.77z"/>
	<path class="st0" d="M619.24,588.38c0.14-1.21,0.27-2.42,0.41-3.62c0.6,1.99,2.91,3.73,0.91,6.11
		C620.11,590.03,619.67,589.21,619.24,588.38z"/>
	<path class="st0" d="M445.17,706.93c1.3-0.11,2.6-0.22,3.89-0.33c0.71,23.51,11.7,43.9,19.82,65.16
		c-2.43,8.62,0.85,16.67,2.47,24.88c0.09,24.51,0.12,49.03-2.37,73.45c-0.69,1.53-1.39,3.06-2.08,4.59
		c-15.96,0.01-31.91,0.01-47.87,0.02c3.36-6.17,4.74-12.77,4.21-19.77c17.51-39.61,19.3-80.67,11.38-122.64
		c1.37-5.57,2.74-11.13,4.11-16.7C440.88,712.71,443.02,709.82,445.17,706.93z"/>
	<path class="st0" d="M165.88,802.63c1.53,2.5,3.06,5,4.59,7.5c0.67,1.88-0.27,4.48,2.43,5.47c1.9,21.59,19.13,37.61,21.5,59.03
		c-38.61-0.05-77.22-0.11-115.84-0.16c-1.75-2.77-2.22-5.95,0.85-7.58c9.7-5.13,17.93-13.49,29.82-13.93
		c6.88,3.03,12.65-0.84,18.52-3.25c4.73-1.94,3.11-5.97,1.9-9.32c-3.2-8.83-6.63-17.57-9.96-26.35
		c-7.28-14.97-17.06-28.34-26.8-41.73c0.72-7.44-5.06-11.98-8.02-17.77c-1.71-3.36-5.25-6.35-1.71-10.53
		c-1.11-8.35-8.6-13.19-11.62-21.19c5.64-2.28,9.65,1.4,13.71,3.69c27.54,15.54,50.15,36.73,69.65,61.41
		C162.33,790.03,162.14,797.8,165.88,802.63z"/>
	<path class="st0" d="M109.24,852.97c-7.64,10.85-21.65,12.62-30.68,21.51c-1.2,0.01-2.39,0.03-3.59,0.05
		C55.2,846.9,31.46,823.3,2.39,804.61C31,787.7,91.25,815.64,109.24,852.97z"/>
	<path class="st0" d="M83.17,744.03c6.21,7.86,14.64,14.66,12.54,26.45c-2.61,4.39-6.2,3.6-10.13,2.12c-6.26-2.37-11.35-7-17.8-8.94
		c-8.21-4.21-16.42-8.43-26.67-13.69C56.31,744.71,69.58,743.31,83.17,744.03z"/>
	<path class="st0" d="M67.78,763.65c9.31,2.27,18.62,4.55,27.93,6.82c15.81,10.23,19.02,27.39,23.98,43.58
		C104.38,795.2,87.11,778.36,67.78,763.65z"/>
	<path class="st0" d="M207.5,667.59c3.35,18.16,3.41,36.31-0.04,54.47C204.84,703.9,204.77,685.75,207.5,667.59z"/>
	<path class="st0" d="M207.75,730.64c0.39,2,0.84,3.98,1.11,6c0.04,0.27-0.86,0.66-1.33,0.99c-0.04-0.89-0.07-1.79-0.11-2.68
		C207.53,733.52,207.64,732.08,207.75,730.64z"/>
	<path class="st0" d="M567.35,655.72c0-4.25,0-8.49,0-12.74c-3.05,6.53-1.07,13.77-4.31,20.1c-2.81-26.16-7.54-51.98-13.48-77.6
		c5.21-0.72,7.74-5.13,11.15-8.25c16-14.69,34.53-23.41,56.15-25.21c1.45,3.93-0.83,5.68-2.53,7.33
		C586.97,585.78,569.31,616.92,567.35,655.72z"/>
	<path class="st0" d="M569.17,678.39c-2.89-6.72-1.57-13.8-1.82-20.75C569.42,664.42,569.15,671.42,569.17,678.39z"/>
	<path class="st0" d="M216.21,791.82c-0.66-9.35-1.32-18.69-1.98-28.03c9.09,12.18,19.98,40.19,19.57,51.9
		C227.71,806.96,225.34,796.73,216.21,791.82z"/>
	<path class="st0" d="M746.24,874.62c-10.97-0.68-22.16,1.98-32.91-2.14c11.25-20.62,19.01-42.82,28.96-64.03
		c1.47-3.13,2.87-7.88,7.05-7.16c4.7,0.81,3.01,5.81,3.26,9.15c0.31,3.97,0.21,7.95,2.08,11.62
		C751.86,839.57,749.05,857.09,746.24,874.62z"/>
	<path class="st0" d="M759.44,741.95c0.66-2.98,1.31-5.95,1.97-8.93c2.88,5.77,2.56,11.56,0.16,17.37
		C760.86,747.59,760.15,744.77,759.44,741.95z"/>
	<path class="st0" d="M787.27,746.29c-0.65,3.57-1.29,7.13-1.94,10.7C782.54,752.8,782.7,749.14,787.27,746.29z"/>
	<path class="st0" d="M763.55,708.99c-2.59-5.14-2.7-10.24,0.29-15.28C763.74,698.8,763.64,703.9,763.55,708.99z"/>
	<path class="st0" d="M850.62,639.28c1.29,9.42,1.71,18.83-0.01,28.25C847.66,658.11,847.65,648.7,850.62,639.28z"/>
</g>
</svg>
